<!-- Generated by IcoMoon.io -->
<svg version="1.1" xmlns="http://www.w3.org/2000/svg" width="384" height="448" viewBox="0 0 384 448">
<title></title>
<g id="icomoon-ignore">
</g>
<path fill="#000" d="M312 32c39.75 0 72 32.25 72 72v240c0 39.75-32.25 72-72 72h-181.25c8.25-11.75 21.75-32 27-52.5 0 0 2.25-8.5 13.25-52.25 6.75 12.75 26 23.75 46.5 23.75 61 0 102.5-55.75 102.5-130.25 0-56.25-47.75-108.75-120.25-108.75-90.25 0-135.75 64.75-135.75 118.75 0 32.5 12.5 61.5 39 72.5 4.25 1.75 8.25 0 9.5-4.75 0.75-3.25 2.75-11.75 3.75-15.25 1.25-4.75 0.75-6.5-2.75-10.5-7.5-9.25-12.5-20.75-12.5-37.5 0-48 36-90.75 93.5-90.75 51 0 79 31 79 72.75 0 54.75-24.25 101-60.25 101-19.75 0-34.75-16.5-30-36.75 5.75-24 16.75-50 16.75-67.25 0-15.5-8.25-28.5-25.5-28.5-20.25 0-36.5 21-36.5 49 0 0 0 18 6 30.25-20.75 88-24.5 103.5-24.5 103.5-5.5 23-3.25 49.75-1.75 63.5h-45.75c-39.75 0-72-32.25-72-72v-240c0-39.75 32.25-72 72-72h240z"></path>
</svg>
